<svg xmlns="http://www.w3.org/2000/svg" viewBox="0 0 320 420" role="img" aria-labelledby="title desc">
  <title id="title">Brawler zombie portrait</title>
  <desc id="desc">A hulking zombie brawler with a bruised face, heavy shoulders, and a fierce grin.</desc>
  <defs>
    <linearGradient id="bg" x1="0" y1="0" x2="1" y2="1">
      <stop offset="0%" stop-color="#7a2f22" />
      <stop offset="100%" stop-color="#130807" />
    </linearGradient>
  </defs>
  <rect width="320" height="420" rx="34" fill="url(#bg)" />
  <circle cx="160" cy="148" r="84" fill="#c99f80" />
  <path d="M80 143c14-43 45-72 80-72s66 29 80 72c-30-16-55-24-80-24s-50 8-80 24Z" fill="#53322b" />
  <path d="M82 214c21-33 44-48 78-48s57 15 78 48v92H82Z" fill="#4a2b21" />
  <path d="M110 149c15-11 31-16 50-16s35 5 50 16" fill="none" stroke="#d7bb9c" stroke-width="8" stroke-linecap="round" />
  <circle cx="130" cy="156" r="11" fill="#161616" />
  <circle cx="190" cy="156" r="11" fill="#161616" />
  <path d="M138 183c13 10 32 10 45 0" fill="none" stroke="#69231d" stroke-width="8" stroke-linecap="round" />
  <path d="M92 120c22 10 114 10 136 0" fill="none" stroke="#2a1410" stroke-width="12" stroke-linecap="round" opacity="0.85" />
  <path d="M106 296h108l30 62H76Z" fill="#5a372a" />
  <path d="M90 320h140" stroke="#a14a35" stroke-width="10" stroke-linecap="round" opacity="0.7" />
</svg>