<svg xmlns="http://www.w3.org/2000/svg" viewBox="0 0 320 420" role="img" aria-labelledby="title desc">
  <title id="title">Engineer zombie portrait</title>
  <desc id="desc">A zombie engineer with goggles, a hard hat, and a toolbox-ready look.</desc>
  <defs>
    <linearGradient id="bg" x1="0" y1="0" x2="1" y2="1">
      <stop offset="0%" stop-color="#5b3f76" />
      <stop offset="100%" stop-color="#14101a" />
    </linearGradient>
  </defs>
  <rect width="320" height="420" rx="34" fill="url(#bg)" />
  <circle cx="160" cy="146" r="80" fill="#d7b08d" />
  <path d="M86 139c15-42 44-69 74-69s59 27 74 69c-26-12-48-19-74-19s-48 7-74 19Z" fill="#6a6e73" />
  <path d="M102 110h116l10 28H92Z" fill="#f0c54e" />
  <path d="M91 214c18-27 39-41 69-41s51 14 69 41v90H91Z" fill="#494855" />
  <path d="M118 145c15-8 28-11 42-11s27 3 42 11" fill="none" stroke="#d8c6a8" stroke-width="7" stroke-linecap="round" />
  <circle cx="132" cy="155" r="10" fill="#171717" />
  <circle cx="188" cy="155" r="10" fill="#171717" />
  <path d="M139 182c10 7 30 7 41 0" fill="none" stroke="#7a3027" stroke-width="7" stroke-linecap="round" />
  <circle cx="130" cy="154" r="18" fill="none" stroke="#cfd7df" stroke-width="4" opacity="0.85" />
  <circle cx="190" cy="154" r="18" fill="none" stroke="#cfd7df" stroke-width="4" opacity="0.85" />
  <path d="M110 293h100l24 64H86Z" fill="#5e5967" />
  <path d="M104 311h112" stroke="#f0c54e" stroke-width="8" stroke-linecap="round" opacity="0.75" />
</svg>