<svg xmlns="http://www.w3.org/2000/svg" viewBox="0 0 320 420" role="img" aria-labelledby="title desc">
  <title id="title">Infiltrator zombie portrait</title>
  <desc id="desc">A sneaky zombie infiltrator with a dark mask, hood, and quiet menace.</desc>
  <defs>
    <linearGradient id="bg" x1="0" y1="0" x2="1" y2="1">
      <stop offset="0%" stop-color="#14544a" />
      <stop offset="100%" stop-color="#050a09" />
    </linearGradient>
  </defs>
  <rect width="320" height="420" rx="34" fill="url(#bg)" />
  <circle cx="160" cy="145" r="78" fill="#d0a786" />
  <path d="M74 156c11-57 50-96 86-96s75 39 86 96c-31-22-57-32-86-32s-55 10-86 32Z" fill="#223036" />
  <path d="M92 214c18-26 39-40 68-40s50 14 68 40v91H92Z" fill="#081113" />
  <path d="M118 148c10-9 23-13 42-13s32 4 42 13" fill="none" stroke="#b79b7b" stroke-width="7" stroke-linecap="round" />
  <circle cx="132" cy="154" r="10" fill="#bfe9e4" />
  <circle cx="188" cy="154" r="10" fill="#bfe9e4" />
  <path d="M124 172h72v12h-72z" fill="#1c2429" />
  <path d="M141 182c10 6 19 6 29 0" fill="none" stroke="#55221d" stroke-width="6" stroke-linecap="round" />
  <path d="M106 289h108l24 66H82Z" fill="#122622" />
  <path d="M98 125l28 19" stroke="#bfe9e4" stroke-width="7" stroke-linecap="round" opacity="0.45" />
</svg>