<svg xmlns="http://www.w3.org/2000/svg" viewBox="0 0 320 420" role="img" aria-labelledby="title desc">
  <title id="title">Leader zombie portrait</title>
  <desc id="desc">A zombie leader with a cracked crown, rigid posture, and commanding stare.</desc>
  <defs>
    <linearGradient id="bg" x1="0" y1="0" x2="1" y2="1">
      <stop offset="0%" stop-color="#7f6a21" />
      <stop offset="100%" stop-color="#141103" />
    </linearGradient>
  </defs>
  <rect width="320" height="420" rx="34" fill="url(#bg)" />
  <circle cx="160" cy="146" r="82" fill="#d7b18f" />
  <path d="M84 145c14-42 44-70 76-70s62 28 76 70c-27-12-49-19-76-19s-49 7-76 19Z" fill="#59624b" />
  <path d="M92 116l20 20 24-24 24 24 24-24 24 24 20-20 8 24H84Z" fill="#d8ba47" />
  <path d="M92 214c18-28 39-42 68-42s50 14 68 42v90H92Z" fill="#4f462d" />
  <path d="M118 148c13-8 26-12 42-12s29 4 42 12" fill="none" stroke="#d8c2a2" stroke-width="7" stroke-linecap="round" />
  <circle cx="132" cy="155" r="10" fill="#161616" />
  <circle cx="188" cy="155" r="10" fill="#161616" />
  <path d="M139 183c12 8 31 8 43 0" fill="none" stroke="#6d231f" stroke-width="7" stroke-linecap="round" />
  <path d="M104 294h112l24 63H80Z" fill="#5f5636" />
  <path d="M116 113c18 6 70 6 88 0" fill="none" stroke="#fff2a0" stroke-width="8" stroke-linecap="round" opacity="0.7" />
</svg>