<svg xmlns="http://www.w3.org/2000/svg" viewBox="0 0 320 420" role="img" aria-labelledby="title desc">
  <title id="title">Medic zombie portrait</title>
  <desc id="desc">A zombie medic with a cracked red cross hood and worn medical wraps.</desc>
  <defs>
    <linearGradient id="bg" x1="0" y1="0" x2="1" y2="1">
      <stop offset="0%" stop-color="#3f5f7f" />
      <stop offset="100%" stop-color="#101b25" />
    </linearGradient>
  </defs>
  <rect width="320" height="420" rx="34" fill="url(#bg)" />
  <circle cx="160" cy="146" r="80" fill="#d4ae8f" />
  <path d="M84 142c15-41 43-69 76-69s61 28 76 69c-27-13-49-20-76-20s-49 7-76 20Z" fill="#6d7f8c" />
  <path d="M92 214c17-27 38-41 68-41s51 14 68 41v90H92Z" fill="#43525f" />
  <path d="M125 128h70v22h-70z" fill="#e7dfd0" />
  <path d="M125 136h70" stroke="#c43a31" stroke-width="8" stroke-linecap="round" />
  <path d="M160 119v34" stroke="#c43a31" stroke-width="8" stroke-linecap="round" />
  <path d="M115 149c13-9 27-13 45-13s32 4 45 13" fill="none" stroke="#d4c3a6" stroke-width="7" stroke-linecap="round" />
  <circle cx="132" cy="155" r="10" fill="#171717" />
  <circle cx="188" cy="155" r="10" fill="#171717" />
  <path d="M138 183c12 8 32 8 44 0" fill="none" stroke="#742520" stroke-width="7" stroke-linecap="round" />
  <path d="M108 292h104l22 64H86Z" fill="#566778" />
</svg>