<svg xmlns="http://www.w3.org/2000/svg" viewBox="0 0 320 420" role="img" aria-labelledby="title desc">
  <title id="title">Survivor zombie portrait</title>
  <desc id="desc">A battered zombie survivor with bandages, a torn jacket, and a determined stare.</desc>
  <defs>
    <linearGradient id="bg" x1="0" y1="0" x2="1" y2="1">
      <stop offset="0%" stop-color="#1b5e55" />
      <stop offset="100%" stop-color="#0f1216" />
    </linearGradient>
  </defs>
  <rect width="320" height="420" rx="34" fill="url(#bg)" />
  <circle cx="160" cy="146" r="84" fill="#d8b79b" />
  <path d="M88 148c12-48 41-78 72-78s60 30 72 78c-22-18-44-28-72-28s-50 10-72 28Z" fill="#5a6d4e" />
  <path d="M98 212c19-31 43-47 62-47s43 16 62 47v92H98Z" fill="#2f3a33" />
  <path d="M114 142c18-15 31-21 46-21 14 0 27 6 46 21" fill="none" stroke="#f2f0df" stroke-width="11" stroke-linecap="round" />
  <circle cx="131" cy="150" r="11" fill="#1a1a1a" />
  <circle cx="189" cy="150" r="11" fill="#1a1a1a" />
  <path d="M137 183c13 9 30 9 43 0" fill="none" stroke="#6a2525" stroke-width="8" stroke-linecap="round" />
  <path d="M115 132l21 30" stroke="#f2f0df" stroke-width="8" stroke-linecap="round" />
  <path d="M198 126l17 25" stroke="#f2f0df" stroke-width="8" stroke-linecap="round" />
  <path d="M108 290h104l20 72H88Z" fill="#5f6d59" />
  <path d="M86 344c28-19 120-19 148 0" fill="none" stroke="#cb563b" stroke-width="10" stroke-linecap="round" opacity="0.8" />
</svg>