<svg xmlns="http://www.w3.org/2000/svg" viewBox="0 0 320 420" role="img" aria-labelledby="title desc">
  <title id="title">Tracker zombie portrait</title>
  <desc id="desc">A zombie tracker with a worn compass lens, utility straps, and sharp eyes.</desc>
  <defs>
    <linearGradient id="bg" x1="0" y1="0" x2="1" y2="1">
      <stop offset="0%" stop-color="#31502d" />
      <stop offset="100%" stop-color="#0f1610" />
    </linearGradient>
  </defs>
  <rect width="320" height="420" rx="34" fill="url(#bg)" />
  <circle cx="160" cy="146" r="82" fill="#d2ae8a" />
  <path d="M83 143c13-42 44-72 77-72s64 30 77 72c-28-17-51-25-77-25s-49 8-77 25Z" fill="#51603a" />
  <path d="M95 214c18-27 40-42 65-42s47 15 65 42v90H95Z" fill="#364339" />
  <circle cx="160" cy="127" r="23" fill="#6b7f59" />
  <circle cx="160" cy="127" r="16" fill="none" stroke="#e8dfc4" stroke-width="4" />
  <path d="M160 111l0 16 12 9" fill="none" stroke="#e8dfc4" stroke-width="4" stroke-linecap="round" />
  <path d="M117 149c11-10 24-16 43-16s32 6 43 16" fill="none" stroke="#c0a079" stroke-width="7" stroke-linecap="round" />
  <circle cx="131" cy="155" r="10" fill="#171717" />
  <circle cx="188" cy="155" r="10" fill="#171717" />
  <path d="M137 184c12 8 33 8 45 0" fill="none" stroke="#7a3029" stroke-width="7" stroke-linecap="round" />
  <path d="M105 293h110l25 66H80Z" fill="#425542" />
  <path d="M160 292v70" stroke="#b99d5b" stroke-width="8" stroke-linecap="round" opacity="0.7" />
</svg>